<svg xmlns="http://www.w3.org/2000/svg" width="864.86498" height="860.47519" data-name="Layer 1"><circle cx="215.86498" cy="587.94566" r="215.86498" fill="#2f2e41"/><path fill="#3f3d56" d="M331.89241 611.33103q0 10.44246-.80952 20.56113-.10788 1.64594-.26977 3.292c-7.51939 83.10793-53.85831 147.68758-110.72083 151.35725h-.0179q-.94451.081-1.8889.10792c-1.07928.054-2.14067.072-3.21995.072a77.07733 77.07733 0 0 1-11.3689-.82752q-.32379-.054-.64757-.10793c-55.27939-8.45473-99.172-74.67131-104.37075-157.79725-.0359-.57565-.07192-1.1513-.08992-1.727q-.45867-7.39335-.44972-14.93064c0-96.86947 52.34721-175.39029 116.92686-175.39029s116.92687 78.5209 116.92687 175.39033Z"/><circle cx="211.36779" cy="396.36549" r="147.50774" fill="#3f3d56"/><ellipse cx="211.36779" cy="518.68898" fill="#2f2e41" rx="30.58087" ry="7.1955"/><circle cx="164.59705" cy="432.34299" r="12.59212" fill="#2f2e41"/><circle cx="258.13854" cy="432.34299" r="12.59212" fill="#2f2e41"/><path d="M213.16667 729.15734a164.79677 164.79677 0 0 1-1.79888 24.50066 148.36766 148.36766 0 0 1-8.41872 32.12788c-55.27939-8.45473-99.172-74.67131-104.37075-157.79725-.0359-.57565-.07192-1.1513-.08992-1.727 10.68532-7.82506 22.75581-12.23232 35.52777-12.23232 37.93832 0 69.63449 38.81964 77.35162 90.64533a164.5509 164.5509 0 0 1 1.79888 24.4827Z" opacity=".1"/><path fill="#3f3d56" d="M213.16667 745.34721a164.79667 164.79667 0 0 1-1.79888 24.50066c-6.0083 40.29473-26.51539 72.74651-53.19274 85.15873a57.73838 57.73838 0 0 1-15.974 4.857 53.79485 53.79485 0 0 1-8.18486.61167 56.14144 56.14144 0 0 1-22.48593-4.73105 66.69915 66.69915 0 0 1-15.81207-9.64195c-24.35684-19.60777-40.85249-57.38415-40.85249-100.755 0-63.59029 35.43786-115.128 79.15049-115.128 37.93832 0 69.63449 38.81964 77.35162 90.64533a164.5509 164.5509 0 0 1 1.79886 24.48261Z"/><path d="M331.08289 631.89216q-.10788 1.64594-.26977 3.292c-7.51939 83.10793-53.85831 147.68758-110.72083 151.35725h-.0179a149.175 149.175 0 0 1-8.7066-32.88338 167.62669 167.62669 0 0 1 0-48.98332c7.71714-51.82569 39.4133-90.64533 77.35162-90.64533 15.57821-.00003 30.11315 6.5479 42.36348 17.86278Z" opacity=".1"/><path fill="#3f3d56" d="M367.8699 745.34721c0 47.67018-19.91356 88.55857-48.28185 106.04369a61.45258 61.45258 0 0 1-15.25442 6.8357 55.28509 55.28509 0 0 1-30.90466.08993 62.29938 62.29938 0 0 1-17.03529-7.84307c-22.64788-14.7508-39.64727-44.54016-45.02589-80.62559a167.62669 167.62669 0 0 1 0-48.98332c7.71714-51.82569 39.4133-90.64533 77.35162-90.64533 43.71264 0 79.15049 51.5377 79.15049 115.12799Z"/><path fill="#6c63ff" d="M211.36779 426.94636c-44.70715 0-80.94936 30.36348-80.94936 61.16175 0 18.0611 12.47431 34.10791 31.8 44.29894 7.19406-13.23519 26.47875-22.71245 49.14936-22.71245s41.95527 9.47725 49.14934 22.71244c19.32572-10.191 31.8-26.23784 31.8-44.29894.00003-30.79826-36.24218-61.16174-80.94934-61.16174Z"/><ellipse cx="207.77004" cy="491.70586" fill="#3f3d56" rx="21.5865" ry="17.98875"/><ellipse cx="64.75949" cy="369.38237" fill="#6c63ff" rx="30.58087" ry="58.46343"/><ellipse cx="348.98172" cy="369.38237" fill="#6c63ff" rx="30.58087" ry="58.46343"/><path fill="#3f3d56" d="M244.64698 229.9696a17.89846 17.89846 0 0 0-11.18731 3.91692 26.94538 26.94538 0 0 0-48.55534 5.485 17.98875 17.98875 0 1 0 0 17.17364 26.94538 26.94538 0 0 0 48.55534 5.485 17.98386 17.98386 0 1 0 11.18731-32.06056Z"/><path fill="#2f2e41" d="M111.53024 789.4196v66.32451a66.69915 66.69915 0 0 1-15.81207-9.64195ZM158.17505 855.0066a57.73838 57.73838 0 0 1-15.974 4.857l8.41872-60.712ZM273.42897 789.4196v68.89689a62.29938 62.29938 0 0 1-17.03529-7.84307ZM319.58805 851.3909a61.45258 61.45258 0 0 1-15.25442 6.8357l8.18486-59.07509Z"/><circle cx="167.86498" cy="429.97519" r="4" fill="#fff"/><circle cx="261.86498" cy="429.97519" r="4" fill="#fff"/><path fill="#f2f2f2" d="M667.86498 44.9752c-108.80011 0-197 88.19989-197 197a196.11973 196.11973 0 0 0 23.61926 93.60321 82.50076 82.50076 0 1 0 110.75745 93.228 196.772 196.772 0 0 0 62.62329 10.16883c108.80011 0 197-88.19989 197-197s-88.19989-197.00004-197-197.00004Z"/><ellipse cx="663.92477" cy="329.86658" opacity=".1" rx="97.20935" ry="16.40989"/><circle cx="599.13574" cy="95.582" r="69.89029" fill="#ff6584"/><path fill="#6c63ff" d="M790.43116 206.94495c.04425 91.10982-54.10426 122.944-120.91269 122.97648q-2.32777.00112-4.6331-.04973-4.64445-.09795-9.19221-.41876c-60.29893-4.24-107.1657-37.65856-107.20685-122.39049-.04259-87.687 111.9738-198.40082 120.37467-206.587.00734 0 .00734 0 .01477-.00744.31916-.312.4825-.468.4825-.468s121.02867 115.84251 121.07291 206.94494Z"/><path fill="#3f3d56" d="m665.10875 315.98718 44.2144-61.84046-44.32249 68.6268-.11529 7.09818q-4.64445-.09795-9.19221-.41876l4.72249-91.14929-.03741-.7053.08151-.13373.44881-8.613-44.5006-68.75443 44.63106 62.3022.11228 1.82647 3.56757-68.86687-38.10149-71.05182 38.56338 58.94916 3.68022-142.781.01455-.47516.00022.46772-.56888 112.59757 37.86706-44.65636-38.02577 54.35324-.97238 61.66352 35.36527-59.19289-35.5019 68.25867-.54021 34.288 51.32479-82.39579-51.51946 94.35735Z"/></svg>